<svg width="88" height="87" viewBox="0 0 88 87" fill="none" xmlns="http://www.w3.org/2000/svg">
<g id="fluent-emoji-high-contrast:crab" clip-path="url(#clip0_228_183)">
<path id="Vector" d="M53.5718 26.5732L53.5968 26.6023C54.6188 27.7944 56.4009 27.9313 57.593 26.9093L55.2249 24.1471L55.2074 24.1621C53.0019 21.8863 50.0109 20.5381 46.845 20.3928C43.6791 20.2475 40.5772 21.3161 38.1725 23.3803L38.4741 23.7321C38.0362 23.8724 37.6651 24.1686 37.4312 24.5645C37.1972 24.9603 37.1168 25.4282 37.205 25.8795C36.9397 25.8017 36.6591 25.7915 36.3888 25.8497C36.1184 25.9079 35.8669 26.0327 35.6571 26.2128C34.1597 27.4965 33.3429 29.2712 33.2303 31.0905C32.3813 31.377 31.5144 31.8251 30.6284 32.451L31.3245 23.5129C31.4034 22.3103 29.9743 21.6437 29.0958 22.4725C27.3409 24.1031 26.1884 26.3776 25.9913 28.9427C25.815 31.1639 26.398 33.3791 27.6448 35.2258C27.3545 35.5756 27.0799 35.932 26.8237 36.298L21.1166 29.6411C20.3314 28.7252 18.8505 29.2633 18.7987 30.468C18.7296 32.4812 19.278 34.4674 20.3702 36.16C21.4624 37.8526 23.0462 39.1706 24.909 39.9371C24.7483 40.3675 24.6077 40.8008 24.4829 41.2407C22.9363 40.6376 21.2625 40.4342 19.6165 40.6493C17.9704 40.8644 16.4051 41.4911 15.0654 42.4715C14.0872 43.184 14.4862 44.7085 15.6701 44.8537L23.8497 45.7714C23.8477 46.3633 23.8753 46.9576 23.9358 47.5489C23.5001 47.799 23.0839 48.0816 22.6908 48.3944C20.6513 50.0167 19.4198 52.2579 19.0462 54.6466C18.8594 55.8409 20.222 56.6653 21.1773 55.8967L25.2501 52.6624C25.9622 54.3236 26.9241 55.8661 28.1023 57.2367C29.2746 58.608 30.6496 59.7922 32.1796 60.7482L28.5308 64.121C27.6253 64.9477 28.2319 66.4203 29.4408 66.4181C31.8584 66.4137 34.2615 65.539 36.1763 63.7713C36.4919 63.4807 36.7884 63.1701 37.0639 62.8413C37.6073 62.9808 38.1594 63.0952 38.7123 63.1812L38.3787 71.3418C38.3269 72.5465 39.7995 73.1757 40.6531 72.3178C42.3457 70.6145 43.4214 68.2798 43.5395 65.6814C43.5777 64.869 43.5152 64.055 43.3536 63.258C43.8248 63.2 44.2934 63.1222 44.7581 63.025C45.1363 64.5049 45.8506 65.8777 46.8454 67.0368C48.5405 69.0139 50.8419 70.1685 53.2243 70.4466C54.4352 70.594 55.1953 69.1857 54.4101 68.2698L48.7242 61.6376C49.1288 61.4331 49.5246 61.2116 49.9105 60.9736C51.5459 62.458 53.6307 63.3529 55.8332 63.516C58.4253 63.7151 60.8637 62.911 62.7578 61.4133C63.7111 60.6717 63.2727 59.1306 62.0576 59.0373L53.1471 58.3527C53.8268 57.6417 54.3957 56.8326 54.8349 55.9524C56.6171 56.0414 58.3653 55.442 59.718 54.2782C59.9266 54.0993 60.0876 53.8714 60.1865 53.615C60.2854 53.3585 60.319 53.0816 60.2844 52.8089C60.7178 52.9687 61.1949 52.9632 61.6244 52.7932C62.0539 52.6232 62.4056 52.3008 62.6123 51.8877L63.0996 52.4561C65.4817 50.4165 67.0055 47.5523 67.3659 44.4371C67.7264 41.3219 66.8969 38.1855 65.0435 35.6558L65.0711 35.6321L62.5784 32.7245C61.3863 33.7465 61.2494 35.5286 62.2714 36.7207L62.2963 36.7498L61.8166 37.1611L61.7916 37.132C60.7696 35.9399 58.9875 35.803 57.7954 36.825L59.8058 39.17C58.7501 40.629 58.2162 42.4008 58.2901 44.2002C58.364 45.9995 59.0413 47.7216 60.213 49.0892L60.3601 49.2607C59.9203 49.4018 59.5479 49.7002 59.3144 50.0987C59.0808 50.4972 59.0024 50.9678 59.0942 51.4205C58.83 51.3447 58.5511 51.3356 58.2826 51.3942C58.014 51.4527 57.7642 51.577 57.5555 51.7559C56.9769 52.252 56.2884 52.5345 55.5843 52.6135C55.5584 50.4237 54.6058 48.1681 53.111 45.8302C53.3497 45.7006 53.5581 45.5217 53.7224 45.3053C53.8866 45.089 54.003 44.8402 54.0637 44.5754C54.1245 44.3107 54.1282 44.036 54.0746 43.7697C54.0211 43.5034 53.9115 43.2515 53.7531 43.0309C53.5947 42.8102 53.3912 42.6257 53.1561 42.4897C52.9209 42.3537 52.6595 42.2693 52.3893 42.242C52.119 42.2148 51.846 42.2454 51.5885 42.3317C51.331 42.4181 51.0947 42.5582 50.8955 42.7429C50.1036 41.7403 49.29 40.7551 48.4553 39.7878C47.5979 38.7876 46.7495 37.8274 45.9088 36.9263L45.9626 36.8802C46.1661 36.7053 46.3305 36.4896 46.4452 36.247C46.56 36.0045 46.6225 35.7406 46.6287 35.4723C46.6348 35.2041 46.5846 34.9376 46.4812 34.69C46.3778 34.4424 46.2235 34.2194 46.0283 34.0353C45.8332 33.8511 45.6015 33.7101 45.3483 33.6212C45.0952 33.5324 44.8262 33.4977 44.5588 33.5195C44.2914 33.5413 44.0315 33.6191 43.7961 33.7477C43.5606 33.8763 43.3548 34.053 43.192 34.2663C41.0322 32.3648 38.869 31.0538 36.6217 30.7508C36.788 29.9653 37.2091 29.2567 37.8195 28.7351C38.2556 28.3612 38.4516 27.8072 38.3878 27.2768C38.8221 27.4394 39.3012 27.4355 39.7328 27.2658C40.1644 27.0961 40.5179 26.7726 40.725 26.3577L41.059 26.7473C42.2315 28.1142 43.83 29.0466 45.5969 29.3944C47.3639 29.7423 49.1965 29.4853 50.7996 28.6649L52.81 31.0098C54.0021 29.9878 54.139 28.2057 53.117 27.0136L53.0921 26.9845L53.5718 26.5732Z" fill="#EAB567"/>
</g>
<defs>
<clipPath id="clip0_228_183">
<rect width="61.2774" height="61.2774" fill="white" transform="translate(47.413 0.324463) rotate(49.393)"/>
</clipPath>
</defs>
</svg>
