<svg width="42" height="41" viewBox="0 0 42 41" fill="none" xmlns="http://www.w3.org/2000/svg">
<g id="instagram">
<path id="Vector" d="M29.8494 3.79224H12.9953C8.34111 3.79224 4.56818 7.56517 4.56818 12.2193V29.0735C4.56818 33.7276 8.34111 37.5006 12.9953 37.5006H29.8494C34.5036 37.5006 38.2765 33.7276 38.2765 29.0735V12.2193C38.2765 7.56517 34.5036 3.79224 29.8494 3.79224Z" fill="#EAB567"/>
<path id="Vector_2" d="M27.7427 19.1632C27.9507 20.5659 27.7111 21.9984 27.058 23.2571C26.4049 24.5158 25.3715 25.5364 24.1049 26.174C22.8383 26.8115 21.4029 27.0334 20.0029 26.8081C18.6029 26.5828 17.3095 25.9218 16.3068 24.9192C15.3041 23.9165 14.6432 22.6231 14.4179 21.2231C14.1926 19.8231 14.4145 18.3877 15.052 17.1211C15.6896 15.8545 16.7102 14.8211 17.9689 14.168C19.2276 13.5149 20.6601 13.2753 22.0628 13.4833C23.4936 13.6955 24.8182 14.3622 25.841 15.385C26.8638 16.4078 27.5305 17.7324 27.7427 19.1632Z" stroke="#EDE8E4" stroke-width="2" stroke-linecap="round" stroke-linejoin="round"/>
</g>
</svg>
