<svg width="65" height="65" viewBox="0 0 65 65" fill="none" xmlns="http://www.w3.org/2000/svg">
<g id="icon-park-outline:people-safe">
<g id="Group">
<path id="Vector" d="M8.125 12.5341L32.5122 5.41663L56.875 12.5341V27.1293C56.875 42.4693 47.0573 54.734 32.5041 59.5833C17.9468 54.7354 8.125 42.4666 8.125 27.1226V12.5341Z" stroke="white" stroke-width="4" stroke-linejoin="round"/>
<path id="Vector_2" d="M32.5 31.1458C36.2394 31.1458 39.2708 28.1144 39.2708 24.375C39.2708 20.6355 36.2394 17.6041 32.5 17.6041C28.7606 17.6041 25.7292 20.6355 25.7292 24.375C25.7292 28.1144 28.7606 31.1458 32.5 31.1458Z" stroke="white" stroke-width="4" stroke-linecap="round" stroke-linejoin="round"/>
<path id="Vector_3" d="M43.3333 41.9791C43.3333 39.1059 42.192 36.3504 40.1603 34.3188C38.1287 32.2871 35.3732 31.1458 32.5 31.1458C29.6268 31.1458 26.8713 32.2871 24.8397 34.3188C22.808 36.3504 21.6667 39.1059 21.6667 41.9791" stroke="white" stroke-width="4" stroke-linecap="round" stroke-linejoin="round"/>
</g>
</g>
</svg>
