<svg width="65" height="65" viewBox="0 0 65 65" fill="none" xmlns="http://www.w3.org/2000/svg">
<g id="clarity:atom-solid" clip-path="url(#clip0_185_38)">
<path id="Vector" d="M43.7486 21.143C41.1839 18.5754 38.4253 16.2091 35.4972 14.0652C37.4998 12.8538 39.6018 11.8148 41.7805 10.9597C42.3583 10.743 42.9 10.5805 43.4417 10.418C43.8812 10.9497 44.4473 11.3625 45.0879 11.6184C45.7286 11.8742 46.4233 11.965 47.1082 11.8823C47.7931 11.7996 48.4462 11.5461 49.0076 11.1451C49.5689 10.7441 50.0205 10.2085 50.3208 9.58746C51.6101 9.70419 52.8267 10.2364 53.7875 11.1041C55.9361 13.2527 55.9903 17.5861 53.968 22.9847C54.8528 24.1583 55.6653 25.35 56.4055 26.5958C56.7125 25.8736 57.0375 25.1694 57.2903 24.4652C59.9444 17.5138 59.6014 11.8263 56.3333 8.61246C54.6983 7.06414 52.5688 6.14329 50.3208 6.01246C49.9458 5.23057 49.3344 4.58641 48.5731 4.17108C47.8118 3.75575 46.9393 3.59029 46.0788 3.6981C45.2183 3.8059 44.4136 4.18152 43.7783 4.77182C43.143 5.36212 42.7095 6.13721 42.5389 6.98746C41.8708 7.18607 41.2028 7.38468 40.4986 7.65551C37.6137 8.79163 34.8496 10.213 32.2472 11.8986C29.6396 10.1913 26.8696 8.74589 23.9778 7.58329C17.0264 4.94718 11.3389 5.27218 8.14305 8.54023C5.14582 11.5555 4.65832 16.5569 6.64443 22.7319C6.19113 23.3148 5.90295 24.0089 5.8101 24.7415C5.71725 25.474 5.82314 26.2181 6.11669 26.8956C6.41024 27.5732 6.88063 28.1593 7.47857 28.5926C8.07651 29.0259 8.77998 29.2903 9.51527 29.3583C10.093 30.4597 10.725 31.5611 11.4292 32.6444C9.7524 35.2524 8.34296 38.0229 7.22221 40.9138C4.56804 47.8472 4.9111 53.5527 8.17916 56.7486C9.17345 57.6778 10.3442 58.398 11.6221 58.8663C12.8999 59.3346 14.2587 59.5416 15.618 59.475C18.5022 59.3809 21.346 58.7693 24.0139 57.6694C26.9029 56.5298 29.6727 55.1086 32.2833 53.4263C34.8697 55.1472 37.6219 56.6049 40.4986 57.7777C42.6134 58.6099 44.8297 59.1564 47.0889 59.4027C47.4854 60.246 48.1541 60.9314 48.9873 61.3487C49.8206 61.766 50.7699 61.8909 51.6827 61.7033C52.5955 61.5157 53.4187 61.0266 54.0199 60.3146C54.6211 59.6026 54.9653 58.7091 54.9972 57.7777C55.4767 57.4814 55.9244 57.1366 56.3333 56.7486C59.6014 53.4805 59.9444 47.8472 57.2903 40.9138C54.1762 33.4667 49.5673 26.7377 43.7486 21.143ZM22.6958 54.3291C17.2792 56.4055 12.8555 56.3694 10.6889 54.1847C8.52221 52 8.46804 47.6486 10.5625 42.1958C11.4111 40.0174 12.444 37.9153 13.65 35.9125C15.8003 38.8298 18.1662 41.5819 20.7278 44.1458C21.5042 44.9222 22.2986 45.6805 23.093 46.4027C24.1764 45.849 25.2778 45.2171 26.3972 44.5069C25.35 43.568 24.3028 42.7013 23.2917 41.6C19.2279 37.6068 15.7398 33.0674 12.9278 28.1125C13.4925 27.5272 13.872 26.7883 14.0189 25.9884C14.1658 25.1884 14.0736 24.3629 13.7536 23.6152C13.4337 22.8674 12.9004 22.2306 12.2204 21.7845C11.5403 21.3383 10.7438 21.1026 9.93054 21.1069C8.57638 16.593 8.8111 13 10.7069 11.1041C11.3747 10.5157 12.1527 10.0658 12.9958 9.78063C13.8389 9.49546 14.7302 9.3807 15.618 9.44301C18.0545 9.52438 20.4571 10.0379 22.7139 10.9597C24.8926 11.8148 26.9946 12.8538 28.9972 14.0652C26.0691 16.2091 23.3105 18.5754 20.7458 21.143C19.9514 21.9375 19.175 22.768 18.4167 23.5986C18.9603 24.7425 19.563 25.8574 20.2222 26.9388C21.1972 25.8375 22.1903 24.7541 23.2555 23.6888C26.0334 20.914 29.0548 18.3942 32.2833 16.1597C35.4774 18.4026 38.4681 20.922 41.2208 23.6888C43.9962 26.4662 46.5161 29.4877 48.75 32.7166C46.5104 35.9413 43.9909 38.9622 41.2208 41.7444C35.967 47.1568 29.6632 51.4392 22.6958 54.3291ZM53.7875 54.1666L53.4986 54.4013C53.0245 53.9994 52.4651 53.7106 51.8629 53.5567C51.2606 53.4029 50.6313 53.388 50.0225 53.5132C49.4136 53.6385 48.8413 53.9006 48.3487 54.2796C47.8561 54.6587 47.4561 55.1449 47.1792 55.7013C45.3232 55.463 43.5038 54.996 41.7625 54.3111C39.5806 53.463 37.478 52.4238 35.4792 51.2055C38.4073 49.0616 41.1659 46.6954 43.7305 44.1277C46.3022 41.5732 48.6687 38.8203 50.8083 35.8944C52.0196 37.8971 53.0586 39.9991 53.9139 42.1777C55.9722 47.6486 55.9722 52.018 53.7875 54.1666Z" fill="#EAB565"/>
<path id="Vector_2" d="M33.4416 38.4971C36.6898 37.9699 38.8955 34.9093 38.3683 31.6611C37.841 28.4129 34.7804 26.2072 31.5322 26.7344C28.2841 27.2617 26.0783 30.3223 26.6056 33.5704C27.1328 36.8186 30.1934 39.0244 33.4416 38.4971Z" fill="#EAB565"/>
</g>
<defs>
<clipPath id="clip0_185_38">
<rect width="65" height="65" fill="white"/>
</clipPath>
</defs>
</svg>
