<svg width="123" height="123" viewBox="0 0 123 123" fill="none" xmlns="http://www.w3.org/2000/svg">
<g id="fluent-emoji-high-contrast:crab" clip-path="url(#clip0_193_123)">
<path id="Vector" d="M47.7327 37.1517L47.6974 37.1928C46.2508 38.8801 43.7285 39.0739 42.0413 37.6274L45.393 33.7178L45.4176 33.739C48.5393 30.5179 52.7727 28.6097 57.2536 28.4041C61.7344 28.1985 66.1248 29.7109 69.5284 32.6325L69.1015 33.1305C69.7212 33.329 70.2465 33.7483 70.5776 34.3085C70.9087 34.8688 71.0226 35.5311 70.8977 36.1697C71.2733 36.0597 71.6704 36.0452 72.053 36.1276C72.4356 36.21 72.7916 36.3866 73.0886 36.6415C75.208 38.4585 76.3639 40.9703 76.5233 43.5452C77.725 43.9508 78.952 44.585 80.206 45.4709L79.2207 32.8201C79.1092 31.118 81.1318 30.1746 82.3752 31.3476C84.8591 33.6556 86.4903 36.8748 86.7692 40.5054C87.0188 43.6492 86.1936 46.7845 84.4289 49.3982C84.8398 49.8933 85.2284 50.3978 85.5911 50.9158L93.6687 41.4938C94.7801 40.1975 96.876 40.9591 96.9494 42.6642C97.0472 45.5136 96.271 48.3248 94.7252 50.7204C93.1793 53.1161 90.9377 54.9815 88.3011 56.0665C88.5285 56.6756 88.7275 57.2889 88.9041 57.9115C91.0932 57.0579 93.4621 56.77 95.7919 57.0745C98.1217 57.379 100.337 58.266 102.233 59.6535C103.618 60.662 103.053 62.8197 101.378 63.0253L89.8004 64.3241C89.8032 65.1619 89.7641 66.003 89.6784 66.8399C90.2951 67.1939 90.8842 67.5939 91.4407 68.0366C94.3273 70.3328 96.0703 73.505 96.5991 76.8857C96.8635 78.5761 94.9349 79.743 93.5827 78.6552L87.8183 74.0774C86.8103 76.4286 85.449 78.6119 83.7814 80.5518C82.1221 82.4927 80.176 84.1687 78.0105 85.5217L83.1749 90.2955C84.4565 91.4657 83.5979 93.5499 81.8869 93.5468C78.4651 93.5405 75.0639 92.3026 72.3537 89.8006C71.9071 89.3893 71.4874 88.9497 71.0974 88.4843C70.3283 88.6818 69.5469 88.8437 68.7644 88.9653L69.2365 100.516C69.3098 102.221 67.2255 103.111 66.0174 101.897C63.6217 99.4862 62.0992 96.1818 61.932 92.5041C61.878 91.3543 61.9664 90.2022 62.1952 89.074C61.5283 88.9919 60.8651 88.8819 60.2074 88.7443C59.672 90.8389 58.661 92.7819 57.2529 94.4224C54.8538 97.2208 51.5964 98.855 48.2245 99.2486C46.5106 99.4571 45.4349 97.4639 46.5462 96.1676L54.5938 86.7806C54.0211 86.4912 53.4609 86.1777 52.9147 85.8409C50.6001 87.9418 47.6494 89.2084 44.532 89.4392C40.8631 89.721 37.412 88.583 34.7312 86.4632C33.3819 85.4136 34.0024 83.2323 35.7222 83.1002L48.3338 82.1313C47.3718 81.125 46.5665 79.9797 45.945 78.7339C43.4225 78.86 40.9481 78.0116 39.0336 76.3644C38.7383 76.1112 38.5104 75.7887 38.3705 75.4257C38.2305 75.0627 38.1829 74.6707 38.2318 74.2847C37.6185 74.511 36.9432 74.5031 36.3353 74.2625C35.7274 74.022 35.2296 73.5656 34.9371 72.9809L34.2473 73.7855C30.8758 70.8986 28.7191 66.8448 28.209 62.4356C27.6988 58.0264 28.8728 53.5873 31.496 50.0068L31.4569 49.9733L34.985 45.858C36.6723 47.3045 36.8661 49.8268 35.4196 51.5141L35.3843 51.5552L36.0633 52.1374L36.0986 52.0962C37.5451 50.4089 40.0674 50.2152 41.7547 51.6617L38.9093 54.9807C40.4035 57.0457 41.1591 59.5535 41.0546 62.1002C40.95 64.647 39.9913 67.0844 38.3329 69.02L38.1247 69.2628C38.7473 69.4625 39.2743 69.8848 39.6049 70.4488C39.9354 71.0128 40.0464 71.679 39.9165 72.3197C40.2904 72.2124 40.6851 72.1996 41.0652 72.2824C41.4453 72.3653 41.7989 72.5412 42.0942 72.7944C42.9132 73.4965 43.8877 73.8964 44.8842 74.0082C44.921 70.9088 46.2692 67.7164 48.3849 64.4073C48.0471 64.2239 47.7521 63.9706 47.5196 63.6645C47.2871 63.3583 47.1224 63.0061 47.0364 62.6314C46.9505 62.2566 46.9452 61.8679 47.021 61.491C47.0968 61.1141 47.252 60.7576 47.4761 60.4452C47.7003 60.1329 47.9883 59.8718 48.3211 59.6793C48.6539 59.4868 49.0239 59.3673 49.4064 59.3288C49.7889 59.2902 50.1753 59.3335 50.5398 59.4557C50.9043 59.5779 51.2386 59.7763 51.5206 60.0377C52.6415 58.6187 53.793 57.2242 54.9743 55.8551C56.188 54.4394 57.3887 53.0805 58.5786 51.805L58.5024 51.7398C58.2145 51.4922 57.9818 51.1869 57.8194 50.8436C57.657 50.5004 57.5685 50.1268 57.5598 49.7472C57.551 49.3675 57.6221 48.9903 57.7685 48.6399C57.9149 48.2895 58.1332 47.9738 58.4095 47.7132C58.6857 47.4526 59.0136 47.2529 59.3719 47.1272C59.7302 47.0014 60.1109 46.9524 60.4894 46.9832C60.8679 47.0141 61.2357 47.1241 61.5689 47.3062C61.9022 47.4883 62.1934 47.7383 62.4238 48.0402C65.4809 45.3489 68.5425 43.4933 71.7233 43.0644C71.4879 41.9526 70.892 40.9497 70.028 40.2115C69.4107 39.6823 69.1332 38.8982 69.2236 38.1474C68.6089 38.3777 67.9307 38.3721 67.3199 38.1319C66.7091 37.8917 66.2088 37.4338 65.9156 36.8466L65.4428 37.398C63.7833 39.3326 61.5209 40.6524 59.02 41.1447C56.5191 41.6371 53.9253 41.2733 51.6563 40.1121L48.8109 43.4311C47.1236 41.9846 46.9299 39.4622 48.3764 37.775L48.4117 37.7338L47.7327 37.1517Z" fill="#EAB567"/>
</g>
<defs>
<clipPath id="clip0_193_123">
<rect width="86.73" height="86.73" fill="white" transform="matrix(-0.650866 0.759192 0.759192 0.650866 56.4497 0)"/>
</clipPath>
</defs>
</svg>
