<svg width="41" height="41" viewBox="0 0 41 41" fill="none" xmlns="http://www.w3.org/2000/svg">
<g id="ri:whatsapp-fill">
<path id="Vector" d="M19.726 4C28.839 4 36.226 11.387 36.226 20.5C36.226 29.6129 28.839 37 19.726 37C16.8101 37.0047 13.9455 36.233 11.4265 34.7642L3.23264 37L5.46343 28.8028C3.99344 26.283 3.22116 23.4172 3.22604 20.5C3.22604 11.387 10.6131 4 19.726 4ZM14.1028 12.745L13.7728 12.7582C13.5592 12.7712 13.3504 12.8273 13.159 12.9232C12.98 13.0246 12.8166 13.1513 12.6739 13.2994C12.4759 13.4858 12.3637 13.6475 12.2433 13.8043C11.633 14.5978 11.3044 15.572 11.3094 16.573C11.3127 17.3815 11.5239 18.1685 11.8539 18.9044C12.5287 20.3927 13.6392 21.9685 15.1044 23.4287C15.4575 23.7802 15.804 24.1333 16.1769 24.4616C17.9975 26.0646 20.167 27.2205 22.5129 27.8375L23.4501 27.9811C23.7553 27.9976 24.0606 27.9745 24.3675 27.9596C24.848 27.9348 25.3172 27.8047 25.7419 27.5785C25.958 27.4672 26.1689 27.3461 26.3739 27.2155C26.3739 27.2155 26.4448 27.1693 26.5801 27.067C26.8029 26.902 26.9398 26.7848 27.1246 26.5918C27.2616 26.4499 27.3804 26.2832 27.4711 26.0935C27.5998 25.8245 27.7285 25.3114 27.7813 24.884C27.8209 24.5573 27.8094 24.3791 27.8044 24.2686C27.7978 24.092 27.651 23.9089 27.4909 23.8313L26.5306 23.4007C26.5306 23.4007 25.0951 22.7753 24.2173 22.376C24.1255 22.3359 24.027 22.313 23.9269 22.3084C23.814 22.2968 23.7 22.3095 23.5924 22.3456C23.4848 22.3818 23.3862 22.4405 23.3032 22.5179C23.295 22.5146 23.1844 22.6087 21.9915 24.0541C21.923 24.1461 21.8287 24.2156 21.7205 24.2538C21.6124 24.292 21.4953 24.2972 21.3843 24.2686C21.2768 24.2398 21.1715 24.2034 21.0691 24.1597C20.8645 24.0739 20.7936 24.0409 20.6533 23.9815C19.7063 23.5682 18.8296 23.0099 18.0546 22.3265C17.8467 22.145 17.6536 21.947 17.4556 21.7556C16.8065 21.134 16.2408 20.4307 15.7726 19.6634L15.6753 19.5067C15.6054 19.4014 15.5488 19.2877 15.507 19.1684C15.4443 18.9259 15.6076 18.7312 15.6076 18.7312C15.6076 18.7312 16.0086 18.2923 16.195 18.0547C16.3765 17.8237 16.53 17.5993 16.629 17.4392C16.8237 17.1257 16.8847 16.804 16.7824 16.5548C16.3204 15.4262 15.8419 14.3026 15.3502 13.1872C15.2529 12.9661 14.9641 12.8077 14.7018 12.7763C14.6127 12.7664 14.5236 12.7565 14.4345 12.7499C14.2129 12.7389 13.9909 12.7411 13.7695 12.7565L14.1012 12.7433L14.1028 12.745Z" fill="#EAB567"/>
</g>
</svg>
