<svg width="52" height="52" viewBox="0 0 52 52" fill="none" xmlns="http://www.w3.org/2000/svg">
<g id="youtube">
<path id="Vector" d="M48.6263 13.8501C48.37 12.8263 47.8481 11.8882 47.1133 11.1306C46.3784 10.373 45.4566 9.8228 44.4411 9.53547C40.7305 8.62939 25.888 8.62939 25.888 8.62939C25.888 8.62939 11.0455 8.62939 7.33493 9.62177C6.31936 9.90909 5.3976 10.4593 4.66274 11.2169C3.92789 11.9745 3.40597 12.9126 3.1497 13.9364C2.47061 17.7022 2.13842 21.5223 2.15733 25.3487C2.13312 29.204 2.46533 33.0532 3.1497 36.8473C3.43223 37.8394 3.96584 38.7418 4.69898 39.4674C5.43212 40.1929 6.34001 40.7172 7.33493 40.9894C11.0455 41.9818 25.888 41.9818 25.888 41.9818C25.888 41.9818 40.7305 41.9818 44.4411 40.9894C45.4566 40.7021 46.3784 40.1518 47.1133 39.3942C47.8481 38.6367 48.37 37.6986 48.6263 36.6747C49.3002 32.9373 49.6323 29.1464 49.6187 25.3487C49.6429 21.4935 49.3107 17.6442 48.6263 13.8501Z" fill="#EAB567"/>
<path id="Vector_2" d="M21.034 32.4032L33.4387 25.3487L21.034 18.2942V32.4032Z" fill="#EDE8E4"/>
</g>
</svg>
